<svg xmlns="http://www.w3.org/2000/svg" viewBox="0 0 128 100" width="128" height="100">
	<defs>
		<radialGradient id="grd1" gradientUnits="userSpaceOnUse"  cx="64" cy="50" r="100">
			<stop offset="0" stop-color="#005157"  />
			<stop offset="1" stop-color="#000000"  />
		</radialGradient>
	</defs>
	<style>
		tspan { white-space:pre }
		.shp0 { fill: url(#grd1) } 
		.shp1 { opacity: 0.102;fill: #3dffdc } 
		.shp2 { opacity: 0.2;fill: #3dffdc } 
		.shp3 { opacity: 0.302;fill: #3dffdc } 
		.shp4 { opacity: 0.4;fill: #3dffdc } 
		.shp5 { opacity: 0.502;fill: #3dffdc } 
		.shp6 { opacity: 0.6;fill: #3dffdc } 
		.shp7 { opacity: 0.702;fill: #3dffdc } 
		.shp8 { opacity: 0.8;fill: #3dffdc } 
		.shp9 { opacity: 0.902;fill: #3dffdc } 
		.shp10 { fill: #3dffdc } 
		.shp11 { fill: #ffe5ff } 
	</style>
	<g id="Layer 1">
		<path id="&lt;Path&gt;" class="shp0" d="M164 150L-36 150L-36 -50L164 -50L164 150Z" />
		<g id="&lt;Group&gt;">
			<path id="&lt;Compound Path&gt;" fill-rule="evenodd" class="shp1" d="M34.57 78.4C22.46 78.4 12.6 68.54 12.6 56.42C12.6 44.31 22.46 34.45 34.57 34.45C36.79 34.45 38.97 34.78 41.06 35.43C46.16 26.9 55.48 21.6 65.4 21.6C76.6 21.6 87.06 28.52 91.49 38.82C92.79 38.56 94.11 38.43 95.42 38.43C106.44 38.43 115.4 47.39 115.4 58.41C115.4 69.43 106.44 78.4 95.42 78.4L34.57 78.4ZM34.57 39.21C25.08 39.21 17.36 46.93 17.36 56.42C17.36 65.91 25.08 73.63 34.57 73.63L95.42 73.63C103.81 73.63 110.64 66.81 110.64 58.41C110.64 50.02 103.81 43.19 95.42 43.19C93.84 43.19 92.27 43.44 90.76 43.92C90.75 43.92 90.74 43.92 90.72 43.92C88.69 43.92 88.01 43.11 87.77 42.42C84.52 32.82 75.53 26.37 65.4 26.37C56.42 26.37 48.33 31.37 44.29 39.43C43.89 40.24 43.07 40.74 42.16 40.74C41.85 40.74 41.54 40.68 41.24 40.56C39.13 39.67 36.89 39.21 34.57 39.21Z" />
			<path id="&lt;Compound Path&gt;" fill-rule="evenodd" class="shp2" d="M34.57 78.2C22.57 78.2 12.8 68.43 12.8 56.42C12.8 44.42 22.57 34.65 34.57 34.65C36.82 34.65 39.03 34.99 41.15 35.67C46.2 27.11 55.48 21.8 65.4 21.8C76.6 21.8 87.01 28.73 91.37 39.05C92.71 38.77 94.07 38.63 95.42 38.63C106.33 38.63 115.2 47.5 115.2 58.41C115.2 69.32 106.33 78.2 95.42 78.2L34.57 78.2ZM34.57 39.01C24.97 39.01 17.16 46.82 17.16 56.42C17.16 66.02 24.97 73.83 34.57 73.83L95.42 73.83C103.92 73.83 110.84 66.92 110.84 58.41C110.84 49.91 103.92 42.99 95.42 42.99C93.82 42.99 92.23 43.24 90.7 43.73C90.69 43.73 90.67 43.73 90.66 43.73C88.8 43.73 88.18 42.98 87.96 42.36C84.68 32.67 75.61 26.17 65.4 26.17C56.35 26.17 48.19 31.21 44.11 39.34C43.74 40.08 43 40.54 42.16 40.54C41.88 40.54 41.59 40.49 41.32 40.37C39.18 39.47 36.91 39.01 34.57 39.01Z" />
			<path id="&lt;Compound Path&gt;" fill-rule="evenodd" class="shp3" d="M34.57 78C22.68 78 13 68.32 13 56.42C13 44.53 22.68 34.85 34.57 34.85C36.85 34.85 39.1 35.21 41.24 35.9C46.24 27.33 55.49 22 65.4 22C76.59 22 86.96 28.94 91.25 39.28C92.62 38.98 94.02 38.83 95.42 38.83C106.22 38.83 115 47.61 115 58.41C115 69.21 106.22 78 95.42 78L34.57 78ZM34.57 38.81C24.86 38.81 16.96 46.71 16.96 56.42C16.96 66.13 24.86 74.03 34.57 74.03L95.42 74.03C104.03 74.03 111.04 67.03 111.04 58.41C111.04 49.8 104.03 42.79 95.42 42.79C93.8 42.79 92.19 43.04 90.64 43.54C90.63 43.54 90.61 43.54 90.6 43.54C88.91 43.54 88.35 42.86 88.15 42.29C84.84 32.53 75.7 25.97 65.4 25.97C56.27 25.97 48.04 31.05 43.93 39.25C43.6 39.92 42.92 40.34 42.16 40.34C41.9 40.34 41.64 40.29 41.4 40.19C39.23 39.28 36.94 38.81 34.57 38.81Z" />
			<path id="&lt;Compound Path&gt;" fill-rule="evenodd" class="shp4" d="M34.57 77.8C22.79 77.8 13.2 68.21 13.2 56.42C13.2 44.64 22.79 35.05 34.57 35.05C36.89 35.05 39.16 35.42 41.33 36.15C46.28 27.54 55.49 22.2 65.4 22.2C76.59 22.2 86.9 29.15 91.13 39.51C92.54 39.19 93.98 39.03 95.42 39.03C106.11 39.03 114.8 47.72 114.8 58.41C114.8 69.1 106.11 77.8 95.42 77.8L34.57 77.8ZM34.57 38.61C24.75 38.61 16.76 46.6 16.76 56.42C16.76 66.25 24.75 74.23 34.57 74.23L95.42 74.23C104.14 74.23 111.24 67.14 111.24 58.41C111.24 49.69 104.14 42.59 95.42 42.59C93.78 42.59 92.15 42.85 90.58 43.35C90.56 43.35 90.55 43.35 90.54 43.35C89.02 43.35 88.52 42.74 88.34 42.23C85 32.38 75.79 25.77 65.4 25.77C56.2 25.77 47.9 30.9 43.75 39.16C43.45 39.76 42.84 40.14 42.16 40.14C41.93 40.14 41.7 40.09 41.47 40C39.29 39.08 36.96 38.61 34.57 38.61Z" />
			<path id="&lt;Compound Path&gt;" fill-rule="evenodd" class="shp5" d="M34.57 77.6C22.9 77.6 13.4 68.1 13.4 56.42C13.4 44.75 22.9 35.25 34.57 35.25C36.92 35.25 39.23 35.63 41.43 36.39C46.32 27.76 55.49 22.4 65.4 22.4C76.58 22.4 86.85 29.37 91.01 39.74C92.45 39.4 93.94 39.23 95.42 39.23C106 39.23 114.6 47.83 114.6 58.41C114.6 68.99 106 77.6 95.42 77.6L34.57 77.6ZM34.57 38.41C24.64 38.41 16.56 46.49 16.56 56.42C16.56 66.36 24.64 74.43 34.57 74.43L95.42 74.43C104.25 74.43 111.44 67.25 111.44 58.41C111.44 49.58 104.25 42.39 95.42 42.39C93.76 42.39 92.11 42.65 90.51 43.16C90.5 43.16 90.49 43.16 90.48 43.16C89.13 43.16 88.69 42.62 88.53 42.16C85.17 32.24 75.87 25.57 65.4 25.57C56.12 25.57 47.76 30.74 43.58 39.07C43.31 39.61 42.77 39.94 42.16 39.94C41.95 39.94 41.75 39.9 41.55 39.82C39.34 38.89 36.99 38.41 34.57 38.41Z" />
			<path id="&lt;Compound Path&gt;" fill-rule="evenodd" class="shp6" d="M34.57 77.4C23.01 77.4 13.6 67.99 13.6 56.42C13.6 44.86 23.01 35.45 34.57 35.45C36.96 35.45 39.29 35.85 41.52 36.63C46.36 27.97 55.5 22.6 65.4 22.6C76.58 22.6 86.8 29.58 90.88 39.98C92.37 39.61 93.89 39.43 95.42 39.43C105.88 39.43 114.4 47.94 114.4 58.41C114.4 68.88 105.88 77.4 95.42 77.4L34.57 77.4ZM34.57 38.21C24.53 38.21 16.36 46.38 16.36 56.42C16.36 66.47 24.53 74.63 34.57 74.63L95.42 74.63C104.36 74.63 111.64 67.36 111.64 58.41C111.64 49.47 104.36 42.19 95.42 42.19C93.74 42.19 92.07 42.45 90.45 42.97C90.44 42.97 90.43 42.97 90.42 42.97C89.24 42.97 88.86 42.5 88.72 42.1C85.33 32.09 75.96 25.37 65.4 25.37C56.04 25.37 47.61 30.58 43.4 38.98C43.16 39.45 42.69 39.74 42.16 39.74C41.98 39.74 41.8 39.7 41.63 39.63C39.39 38.69 37.02 38.21 34.57 38.21Z" />
			<path id="&lt;Compound Path&gt;" fill-rule="evenodd" class="shp7" d="M34.57 77.2C23.12 77.2 13.8 67.88 13.8 56.42C13.8 44.97 23.12 35.65 34.57 35.65C36.99 35.65 39.36 36.06 41.61 36.88C46.4 28.19 55.5 22.8 65.4 22.8C76.58 22.8 86.75 29.8 90.76 40.22C92.29 39.83 93.85 39.63 95.42 39.63C105.77 39.63 114.2 48.05 114.2 58.41C114.2 68.77 105.77 77.2 95.42 77.2L34.57 77.2ZM34.57 38.01C24.42 38.01 16.16 46.27 16.16 56.42C16.16 66.58 24.42 74.83 34.57 74.83L95.42 74.83C104.47 74.83 111.84 67.47 111.84 58.41C111.84 49.36 104.47 41.99 95.42 41.99C93.72 41.99 92.03 42.25 90.39 42.78C90.38 42.78 90.37 42.78 90.36 42.78C89.35 42.78 89.03 42.38 88.91 42.03C85.49 31.94 76.04 25.17 65.4 25.17C55.97 25.17 47.47 30.42 43.22 38.89C43.02 39.29 42.61 39.54 42.16 39.54C42.01 39.54 41.85 39.51 41.71 39.45C39.44 38.5 37.04 38.01 34.57 38.01Z" />
			<path id="&lt;Compound Path&gt;" fill-rule="evenodd" class="shp8" d="M34.57 77C23.23 77 14 67.77 14 56.42C14 45.08 23.23 35.85 34.57 35.85C37.03 35.85 39.42 36.28 41.7 37.12C46.43 28.41 55.51 23 65.4 23C76.56 23 86.7 30.02 90.64 40.46C92.2 40.04 93.81 39.83 95.42 39.83C105.66 39.83 114 48.17 114 58.41C114 68.66 105.66 77 95.42 77L34.57 77ZM34.57 37.81C24.31 37.81 15.96 46.16 15.96 56.42C15.96 66.69 24.31 75.04 34.57 75.04L95.42 75.04C104.58 75.04 112.04 67.58 112.04 58.41C112.04 49.25 104.58 41.79 95.42 41.79C93.7 41.79 91.98 42.06 90.33 42.59C90.32 42.59 90.31 42.59 90.29 42.59C89.46 42.59 89.2 42.25 89.1 41.97C85.65 31.8 76.13 24.96 65.4 24.96C55.89 24.96 47.32 30.27 43.04 38.8C42.87 39.13 42.54 39.34 42.16 39.34C42.03 39.34 41.91 39.32 41.78 39.26C39.5 38.3 37.07 37.81 34.57 37.81Z" />
			<path id="&lt;Compound Path&gt;" fill-rule="evenodd" class="shp9" d="M34.57 76.8C23.34 76.8 14.2 67.66 14.2 56.42C14.2 45.19 23.34 36.05 34.57 36.05C37 36.05 39.38 36.48 41.63 37.31L41.8 37.37L41.88 37.22C46.57 28.57 55.59 23.2 65.4 23.2C76.47 23.2 86.54 30.17 90.45 40.53L90.52 40.7L90.69 40.65C92.24 40.24 93.83 40.03 95.42 40.03C105.55 40.03 113.8 48.28 113.8 58.41C113.8 68.55 105.55 76.8 95.42 76.8L34.57 76.8ZM34.57 37.61C24.2 37.61 15.76 46.05 15.76 56.42C15.76 66.8 24.2 75.24 34.57 75.24L95.42 75.24C104.69 75.24 112.24 67.69 112.24 58.41C112.24 49.14 104.69 41.59 95.42 41.59C93.67 41.59 91.94 41.86 90.27 42.4C90.25 42.4 90.24 42.4 90.23 42.4C89.54 42.4 89.35 42.09 89.29 41.91C85.81 31.65 76.22 24.76 65.4 24.76C55.82 24.76 47.18 30.11 42.86 38.71C42.73 38.98 42.46 39.14 42.16 39.14C42.06 39.14 41.96 39.12 41.86 39.08C39.55 38.11 37.1 37.61 34.57 37.61Z" />
			<path id="&lt;Compound Path&gt;" fill-rule="evenodd" class="shp10" d="M34.57 76.6C23.45 76.6 14.4 67.55 14.4 56.42C14.4 45.3 23.45 36.25 34.57 36.25C36.98 36.25 39.33 36.67 41.56 37.5L41.89 37.62L42.05 37.31C46.71 28.73 55.66 23.4 65.4 23.4C76.39 23.4 86.38 30.31 90.26 40.6L90.39 40.93L90.74 40.84C92.27 40.43 93.84 40.23 95.42 40.23C105.44 40.23 113.6 48.39 113.6 58.41C113.6 68.44 105.44 76.6 95.42 76.6L34.57 76.6ZM34.57 37.41C24.09 37.41 15.56 45.94 15.56 56.42C15.56 66.91 24.09 75.44 34.57 75.44L95.42 75.44C104.8 75.44 112.44 67.8 112.44 58.41C112.44 49.03 104.8 41.39 95.42 41.39C93.65 41.39 91.9 41.67 90.21 42.21C90.17 42.21 90.14 42.21 90.11 42.21C89.75 42.21 89.55 42.06 89.48 41.84C85.98 31.51 76.3 24.56 65.4 24.56C55.74 24.56 47.03 29.95 42.68 38.62C42.58 38.82 42.38 38.94 42.16 38.94C42.09 38.94 42.01 38.93 41.94 38.9C39.6 37.91 37.12 37.41 34.57 37.41Z" />
		</g>
		<path id="&lt;Compound Path&gt;" fill-rule="evenodd" class="shp11" d="M34.57 76.6C23.45 76.6 14.4 67.55 14.4 56.42C14.4 45.3 23.45 36.25 34.57 36.25C36.98 36.25 39.33 36.67 41.56 37.5L41.89 37.62L42.05 37.31C46.71 28.73 55.66 23.4 65.4 23.4C76.39 23.4 86.38 30.31 90.26 40.6L90.39 40.93L90.74 40.84C92.27 40.43 93.84 40.23 95.42 40.23C105.44 40.23 113.6 48.39 113.6 58.41C113.6 68.44 105.44 76.6 95.42 76.6L34.57 76.6ZM34.57 37.41C24.09 37.41 15.56 45.94 15.56 56.42C15.56 66.91 24.09 75.44 34.57 75.44L95.42 75.44C104.8 75.44 112.44 67.8 112.44 58.41C112.44 49.03 104.8 41.39 95.42 41.39C93.65 41.39 91.9 41.67 90.21 42.21C90.17 42.21 90.14 42.21 90.11 42.21C89.75 42.21 89.55 42.06 89.48 41.84C85.98 31.51 76.3 24.56 65.4 24.56C55.74 24.56 47.03 29.95 42.68 38.62C42.58 38.82 42.38 38.94 42.16 38.94C42.09 38.94 42.01 38.93 41.94 38.9C39.6 37.91 37.12 37.41 34.57 37.41Z" />
	</g>
</svg>